<svg xmlns="http://www.w3.org/2000/svg" xmlns:xlink="http://www.w3.org/1999/xlink"><defs>
    <style>
      .cls-1 {
        fill: #f38181;
        fill-rule: evenodd;
      }
    </style>
  
    <style>
      .cls-1 {
        fill: #f38181;
        fill-rule: evenodd;
      }
    </style>
  </defs><symbol id="icon-facebook" viewBox="0 0 12.031 25.62">
 <path id="facebook" class="cls-1" d="M463.089,2060.2v4.12s-3.037-.3-3.8.86c-0.416.64-.169,2.5-0.206,3.84h4.029c-0.34,1.56-.584,2.62-0.835,3.98h-3.216v12.8h-5.582c0-3.95,0-8.55,0-12.75h-2.375v-4.03h2.349c0.12-2.95.165-5.87,1.629-7.35C456.728,2060,458.3,2060.2,463.089,2060.2Z" transform="translate(-451.094 -2060.19)"/>
</symbol><symbol id="icon-instagram" viewBox="0 0 25.593 25.62">
  
  <path id="instagram" class="cls-1" d="M632.7,2085.8H613.5a3.2,3.2,0,0,1-3.2-3.2v-19.2a3.2,3.2,0,0,1,3.2-3.2h19.2a3.2,3.2,0,0,1,3.2,3.2v19.2A3.2,3.2,0,0,1,632.7,2085.8Zm-9.6-17.76a4.954,4.954,0,0,0-4.5,2.88h0a0.244,0.244,0,0,1-.022.05c-0.047.11-.088,0.22-0.128,0.33-0.019.05-.04,0.1-0.057,0.15-0.037.11-.067,0.23-0.1,0.34-0.014.05-.03,0.11-0.042,0.16-0.026.12-.044,0.24-0.061,0.37-0.007.05-.017,0.1-0.023,0.15a5.074,5.074,0,0,0-.029.53,4.96,4.96,0,1,0,9.92,0,5.074,5.074,0,0,0-.029-0.53c-0.006-.05-0.016-0.1-0.023-0.15-0.017-.13-0.035-0.25-0.061-0.37-0.012-.05-0.028-0.11-0.042-0.16-0.028-.11-0.058-0.23-0.1-0.34-0.017-.05-0.038-0.1-0.057-0.15-0.04-.11-0.081-0.22-0.128-0.33a0.244,0.244,0,0,1-.022-0.05h0A4.954,4.954,0,0,0,623.1,2068.04Zm9.92-3.68a1.278,1.278,0,0,0-1.28-1.28h-2.56a1.278,1.278,0,0,0-1.28,1.28v2.56a1.278,1.278,0,0,0,1.28,1.28h2.56a1.278,1.278,0,0,0,1.28-1.28v-2.56Zm0,6.56h-2.36a7.84,7.84,0,1,1-15.12,0h-2.36v10.72a1.278,1.278,0,0,0,1.28,1.28h17.28a1.278,1.278,0,0,0,1.28-1.28v-10.72Z" transform="translate(-610.313 -2060.19)"/>
</symbol><symbol id="icon-twitter" viewBox="0 0 25.594 20.79">
  
  <path id="twitter" class="cls-1" d="M516.513,2062.6a5.393,5.393,0,0,1,4.151,1.65,8.665,8.665,0,0,0,2.691-.91l0.653-.36a5.272,5.272,0,0,1-1.7,2.47,2.512,2.512,0,0,1-.577.41v0.01a9.769,9.769,0,0,0,2.973-.8v0.01a8.535,8.535,0,0,1-1.781,2.04c-0.273.22-.547,0.44-0.82,0.65a15.155,15.155,0,0,1-.243,3.38c-1.312,5.89-4.788,9.89-10.289,11.61a15.83,15.83,0,0,1-7.432.31,19.915,19.915,0,0,1-3.087-1.01,12.912,12.912,0,0,1-1.487-.77c-0.154-.09-0.307-0.19-0.461-0.28a9.219,9.219,0,0,0,1.678.06c0.517-.08,1.023-0.06,1.5-0.16a10.77,10.77,0,0,0,3.151-1.14,5.97,5.97,0,0,0,1.423-.93,4.58,4.58,0,0,1-1.563-.28,5.294,5.294,0,0,1-3.332-3.36,5.194,5.194,0,0,0,2.345-.11,3.767,3.767,0,0,1-1.717-.69,5.032,5.032,0,0,1-2.473-4.49c0.18,0.08.359,0.17,0.538,0.25a5.152,5.152,0,0,0,1.1.31,1.444,1.444,0,0,0,.718.06h-0.026c-0.264-.3-0.695-0.51-0.961-0.84a5.365,5.365,0,0,1-1.179-4.76,6,6,0,0,1,.564-1.37c0.009,0,.017.01,0.026,0.01a3.044,3.044,0,0,0,.474.55,9.443,9.443,0,0,0,1.563,1.5,15.43,15.43,0,0,0,6.419,3.1,10.137,10.137,0,0,0,2.358.31,4.908,4.908,0,0,1,.025-2.47,5.165,5.165,0,0,1,2.973-3.52,5.9,5.9,0,0,1,1.166-.36C516.086,2062.65,516.3,2062.63,516.513,2062.6Z" transform="translate(-499.094 -2062.59)"/>
</symbol></svg>